<svg width="28" height="28" viewBox="0 0 28 28" fill="none" xmlns="http://www.w3.org/2000/svg">
<path d="M14.5579 9.40077C14.6344 8.44921 15.2907 7.14765 16.0125 5.76406L16.1493 5.50156C16.9532 3.96484 17.7844 2.37343 17.7407 1.44921C17.7297 1.1539 17.511 0.93515 17.243 0.93515C16.9641 0.93515 16.7399 1.16484 16.7454 1.43828C16.7235 2.58124 15.8868 4.23281 15.0719 5.83515C14.4704 7.02187 13.8524 8.24687 13.6391 9.12734L13.579 9.44452C13.579 9.46093 13.5735 9.47187 13.5735 9.48827C13.6665 9.52109 13.7649 9.54296 13.8633 9.54843C14.104 9.5703 14.3446 9.51562 14.5579 9.40077Z" fill="#FFC700"/>
<path d="M20.7212 7.32812H20.7157C20.5079 7.24062 20.2891 7.16953 20.0759 7.10937C18.0032 6.54062 16.6962 8.04453 15.7391 9.13828C15.5532 9.35156 15.3782 9.5539 15.2087 9.71797C15.1759 9.75078 15.1376 9.78906 15.0993 9.81641C15.0938 9.82187 15.0884 9.82187 15.0884 9.82734C14.7274 10.1062 14.2735 10.2375 13.8196 10.1937C13.5516 10.1773 13.2946 10.0953 13.0649 9.95312C13.0594 9.94765 13.054 9.94219 13.043 9.94219C12.9337 9.87109 12.8407 9.78359 12.7641 9.67969L12.7477 9.65781C12.3485 9.11641 11.7524 8.29062 10.9376 7.7C9.98054 7.00547 8.99617 6.80859 7.92976 7.1039C5.93914 7.65078 4.76883 9.28047 4.13445 10.5602C3.29226 12.25 3.00242 14.0438 3.00789 15.1594C3.02429 17.6203 4.01961 20.5734 5.67664 23.0672C7.33914 25.5719 9.3407 27.0648 11.0305 27.0648C11.7032 27.0648 12.3977 26.693 12.9884 26.332C13.2126 26.1953 13.6173 26.1023 14.0384 26.1023C14.3884 26.1023 14.7493 26.168 15.0227 26.332C15.4766 26.6055 16.2368 27.0648 16.9805 27.0648C18.3915 27.0648 20.404 25.4789 22.1102 23.0289C23.9204 20.4313 25.0032 17.4836 25.0032 15.1594C24.9923 12.8188 24.0735 8.68984 20.7212 7.32812ZM6.01023 18.2492C5.98836 18.2547 5.96101 18.2547 5.93914 18.2547C5.78601 18.2547 5.64929 18.1453 5.61648 17.9977L5.47429 17.3305C5.43601 17.1555 5.54539 16.9805 5.72586 16.9422C5.90632 16.9039 6.07586 17.0133 6.11414 17.1938L6.25633 17.8609C6.30008 18.0359 6.18523 18.2109 6.01023 18.2492ZM6.84695 10.9484C6.83601 10.9594 6.44773 11.3695 6.14148 12.2227C5.85711 13.0211 5.59461 14.3719 5.96101 16.3023C5.99383 16.4828 5.87898 16.6523 5.69851 16.6852C5.51804 16.718 5.34851 16.6031 5.3157 16.4227C4.55554 12.3703 6.30554 10.5602 6.38211 10.4836C6.51336 10.3578 6.7157 10.3578 6.84695 10.4836C6.96726 10.6148 6.96726 10.8172 6.84695 10.9484Z" fill="#FFC700"/>
<path d="M16.6963 5.86796C16.226 6.77031 15.7502 7.68359 15.4658 8.44921C16.4775 7.31171 17.9541 5.85156 20.2455 6.47499C20.4205 6.52421 20.5955 6.5789 20.765 6.63906C21.1697 6.22343 21.4869 5.73124 21.6947 5.18437L21.9463 4.53359L21.2354 4.37499C19.3049 3.94843 17.6205 4.50077 16.6963 5.86796Z" fill="#FFC700"/>
<path d="M11.3204 7.18046C12.0478 7.70546 12.6001 8.37811 13.0048 8.91952L13.1525 8.14843C13.4806 5.30468 11.6759 2.65233 8.91419 1.90858L8.47122 1.78827L10.5165 4.64843C10.6204 4.79608 10.5876 4.99843 10.44 5.1078C10.2923 5.21718 10.09 5.17889 9.98059 5.03124L7.87513 2.08358L7.8095 2.6578C7.67825 3.76249 7.97356 5.24452 8.52591 6.34374C9.50481 6.25624 10.44 6.54061 11.3204 7.18046Z" fill="#FFC700"/>
</svg>
